<svg id="Layer_1" data-name="Layer 1" xmlns="http://www.w3.org/2000/svg" viewBox="0 0 518.17 518.21"><defs><style>.cls-1{fill:#0d0909;}</style></defs><title>gas_icon</title><path class="cls-1" d="M259.08,0C116,0,0,116,0,259.12S116,518.21,259.08,518.21s259.09-116,259.09-259.09S402.17,0,259.08,0m0,496.18C128.15,496.18,22,390,22,259.1S128.15,22,259.08,22,496.15,128.17,496.15,259.1,390,496.18,259.08,496.18" transform="translate(0 0)"/><path class="cls-1" d="M284.22,441s-75.62-4.51-101.5-87.88C149.94,247.7,252.16,220.1,246.65,148.57c-4.81-62.36-19.18-64.78-19.18-64.78s123.3,10.66,131.07,155.08c3.2,59.16-35.16,84.7-42.36,106.28C302.56,386,309.39,413,309.39,413S270.52,395.59,281,333.18c11.21-66.34-4-93.53-4-93.53s-46.11,34.54-39.15,99.93S284.22,441,284.22,441" transform="translate(0 0)"/></svg>