<svg id="Layer_1" data-name="Layer 1" xmlns="http://www.w3.org/2000/svg" viewBox="0 0 518.99 519"><title>grate_icon</title><path d="M501,63.06" transform="translate(0 0)"/><path d="M501,517.86" transform="translate(0 0)"/><path d="M259.5,519A259.5,259.5,0,0,1,76,76,259.5,259.5,0,0,1,443,443,257.77,257.77,0,0,1,259.5,519Zm0-504.34a244.84,244.84,0,0,0-173.13,418A244.84,244.84,0,0,0,432.62,86.36,243.22,243.22,0,0,0,259.5,14.66Z" transform="translate(0 0)"/><path d="M275.29,28.54q-7.16-.48-14.37-.53V245.57h14.37Z" transform="translate(0 0)"/><path d="M260.92,491q7.21,0,14.37-.53V291.94H260.92Z" transform="translate(0 0)"/><path d="M448.69,126.06q-5.61-7.91-11.91-15.38V244.84l11.91,4.37Z" transform="translate(0 0)"/><path d="M436.78,408.31q6.3-7.49,11.91-15.38V288.72l-11.91,4.37Z" transform="translate(0 0)"/><path d="M391.22,69.1q-6.57-4.56-13.39-8.65V223.2l13.39,4.92Z" transform="translate(0 0)"/><path d="M377.83,458.53q6.82-4.06,13.39-8.64V309.82l-13.39,4.92Z" transform="translate(0 0)"/><polygon points="333.43 281.33 333.43 291.98 368.32 292 368.32 318.23 377.83 314.74 377.83 281.35 333.43 281.33"/><polygon points="377.83 256.29 377.83 223.21 368.32 219.71 368.32 245.63 333.43 245.61 333.43 256.26 377.83 256.29"/><polygon points="436.78 256.19 436.78 244.84 391.22 228.12 391.22 239.47 436.78 256.19"/><polygon points="391.22 298.47 391.22 309.82 436.78 293.1 436.78 281.75 391.22 298.47"/><polygon points="448.69 249.21 448.69 260.56 471.6 268.96 448.69 277.38 448.69 288.73 502.52 268.96 448.69 249.21"/><polygon points="448.69 260.56 448.69 249.21 436.78 244.84 436.78 256.19 448.69 260.56"/><polygon points="436.78 281.75 436.78 293.1 448.69 288.73 448.69 277.38 436.78 281.75"/><polygon points="378.97 302.97 378.97 281.35 377.83 281.35 377.83 314.74 391.22 309.82 391.22 298.47 378.97 302.97"/><polygon points="378.97 256.29 378.97 234.97 391.22 239.47 391.22 228.12 377.83 223.21 377.83 256.29 378.97 256.29"/><rect x="217" y="245.56" width="43.92" height="10.65"/><rect x="275.29" y="245.59" width="43.92" height="10.65"/><rect x="260.92" y="245.58" width="14.36" height="10.65"/><rect x="260.92" y="245.58" width="14.36" height="10.65"/><polygon points="49.21 268.55 86.84 254.74 86.84 243.39 18.29 268.56 86.84 293.71 86.84 282.36 49.21 268.55"/><rect x="158.49" y="245.53" width="44.28" height="10.65"/><polygon points="141.82 234.55 141.82 256.16 144.85 256.17 144.85 222.09 100.09 238.52 100.09 249.87 141.82 234.55"/><polygon points="141.82 281.21 141.82 302.54 100.09 287.23 100.09 298.58 144.85 315 144.85 281.21 141.82 281.21"/><rect x="158.49" y="281.24" width="44.28" height="10.65"/><rect x="275.29" y="281.31" width="43.92" height="10.65"/><rect x="217" y="281.27" width="43.92" height="10.65"/><rect x="260.92" y="281.29" width="14.36" height="10.65"/><rect x="260.92" y="281.29" width="14.36" height="10.65"/><path d="M319.2,483.23q7.19-1.91,14.23-4.27V292H319.2Z" transform="translate(0 0)"/><path d="M333.43,40c-4.69-1.58-9.44-3-14.23-4.27V245.6h14.23Z" transform="translate(0 0)"/><rect x="319.2" y="245.61" width="14.23" height="10.65"/><rect x="319.2" y="281.32" width="14.23" height="10.65"/><path d="M202.77,484c4.7,1.18,9.44,2.19,14.23,3.08V291.91H202.77Z" transform="translate(0 0)"/><path d="M217,31.88Q209.82,33.2,202.77,35V245.54H217Z" transform="translate(0 0)"/><rect x="202.77" y="281.25" width="14.23" height="10.65"/><rect x="202.77" y="281.25" width="14.23" height="10.65"/><rect x="202.77" y="245.55" width="14.23" height="10.65"/><rect x="202.77" y="245.55" width="14.23" height="10.65"/><path d="M152.48,317.8l-7.63-2.8V460.73q6.71,3.82,13.64,7.19v-176h-6Z" transform="translate(0 0)"/><path d="M152.48,245.51h6V51.07q-6.93,3.36-13.64,7.19V222.09l7.63-2.8Z" transform="translate(0 0)"/><polygon points="144.85 281.21 144.85 315 152.48 317.8 152.48 291.87 158.5 291.88 158.5 281.22 144.85 281.21"/><polygon points="144.85 281.21 144.85 315 152.48 317.8 152.48 291.87 158.5 291.88 158.5 281.22 144.85 281.21"/><polygon points="158.5 256.17 158.5 245.52 152.48 245.52 152.48 219.29 144.85 222.09 144.85 256.17 158.5 256.17"/><path d="M86.83,413.71c2.89,3.22,5.86,6.39,9,9.47q2.13,2.13,4.31,4.2V298.57l-13.26-4.86Z" transform="translate(0 0)"/><path d="M100.09,91.6q-2.18,2.07-4.31,4.2c-3.09,3.09-6.06,6.25-9,9.47V243.39l13.26-4.87Z" transform="translate(0 0)"/><polygon points="100.09 249.87 100.09 238.52 86.84 243.39 86.84 254.74 100.09 249.87"/><polygon points="100.09 249.87 100.09 238.52 86.84 243.39 86.84 254.74 100.09 249.87"/><polygon points="86.84 282.36 86.84 293.71 100.09 298.58 100.09 287.23 86.84 282.36"/><polygon points="86.84 282.36 86.84 293.71 100.09 298.58 100.09 287.23 86.84 282.36"/></svg>