<svg id="Laag_1" data-name="Laag 1" xmlns="http://www.w3.org/2000/svg" viewBox="0 0 283.46 283.46"><defs><style>.cls-1{fill:#0d0909;}</style></defs><title>accessoires_icon</title><path class="cls-1" d="M242,41.51A141.74,141.74,0,1,0,242,242,141.74,141.74,0,0,0,242,41.51Zm-7.73,191.18h0l-.61.4h0l-.63.41-43.59-66.16s-5.34-9.41-6.69-15c-.95-4.06-1.09-16-1.08-16.21v0a7.8,7.8,0,0,0,.08-1.21,9.63,9.63,0,0,0-1-4.43l-5.5-10.23-28.9-48.3s-3.22-5.53-8.54-5.47a10.51,10.51,0,0,0-5.93,2L97.55,91.35s-4.84,3.3-4.79,8.14a10.15,10.15,0,0,0,2.62,6.39l34.75,45,7.19,8.44a11,11,0,0,0,5.08,3s11.07,4.58,14.48,7c4.72,3.36,11.45,11.79,11.5,11.86l46.83,68-1.24.86-46.79-68S160.4,173.69,156,170.6c-3-2.18-14-6.77-14.06-6.79a11.66,11.66,0,0,1-5.77-3.49l-8.1-9.5.06,0-33.93-44a12.69,12.69,0,0,1-2.71-5.36L80.71,88.71c1.24-.91,2.48-1.75,3.72-2.5l7.78,9.2a13.71,13.71,0,0,1,4-4.91l-6.09-7.19a27.78,27.78,0,0,1,4.59-1.46L99.89,88l10.53-7-7.27-9.72s-6.84-9.51-15.86-2L55.58,95.48s-9,7.47-.7,15.76L93.76,152.1l0,0,8.4,8a11,11,0,0,0,5.66,2.67s11.52,3.45,15,5.39c4.85,2.75,12.47,10.45,12.47,10.45L201,257a129.67,129.67,0,1,1,33.13-24.42Zm-120-139.75c1.06-1,2.19-1.93,3.41-2.87l35.61,52.2c-1.22.92-2.37,1.89-3.44,2.85Zm31.24,56.85a27.13,27.13,0,0,0-2.63,4l-35.59-52.18a25,25,0,0,1,2.63-4ZM122.83,86.61c1.32-.77,2.64-1.49,3.94-2.11l35.6,52.19c-1.3.63-2.62,1.33-3.94,2.11Zm9.91-4.41a28.63,28.63,0,0,1,4.71-1L173,133.42a27.14,27.14,0,0,0-4.71,1ZM72.86,95.89a44.08,44.08,0,0,1,3.1-3.2l40.79,48.24c-1.1,1-2.15,2.12-3.11,3.19Zm36.94,53.32a28,28,0,0,0-2.21,4.25L66.8,105.23A26.74,26.74,0,0,1,69,101Z" transform="translate(0 0)"/></svg>