<svg id="Layer_1" data-name="Layer 1" xmlns="http://www.w3.org/2000/svg" viewBox="0 0 519 519"><defs><style>.cls-1{fill:#ffffff;}</style></defs><title>charcoal_icon</title><path class="cls-1" d="M401.63,343.55a39.5,39.5,0,1,1,39.53-39.47,39.52,39.52,0,0,1-39.53,39.47m-47.34,90.21a39.5,39.5,0,1,1,39.51-39.47,39.47,39.47,0,0,1-39.51,39.47M267.4,304.08a39.51,39.51,0,1,1,39.49,39.47,39.52,39.52,0,0,1-39.49-39.47m-7.87,129.68A39.5,39.5,0,1,1,299,394.29a39.5,39.5,0,0,1-39.46,39.47M172.66,304.08a39.49,39.49,0,1,1,39.46,39.47,39.52,39.52,0,0,1-39.46-39.47m-7.92,129.68a39.5,39.5,0,1,1,39.52-39.47,39.5,39.5,0,0,1-39.52,39.47M77.86,304.08a39.51,39.51,0,1,1,39.51,39.47,39.53,39.53,0,0,1-39.51-39.47M235.69,51.53s73.38,6.38,78,92.34c1.92,35.22-20.91,50.41-25.2,63.3-8.1,24.24-4.07,40.32-4.07,40.32s-23.11-10.35-16.85-47.55c6.63-39.4-2.4-55.59-2.4-55.59s-27.44,20.55-23.29,59.44,27.56,60.41,27.56,60.41-45-2.73-60.38-52.31c-19.52-62.78,41.32-79.17,38-121.78-2.86-37.1-11.44-38.58-11.44-38.58M259.5,0C116.17,0,0,116.18,0,259.52S116.17,519,259.5,519,519,402.84,519,259.52,402.79,0,259.5,0"/></svg>