<svg id="Layer_1" data-name="Layer 1" xmlns="http://www.w3.org/2000/svg" viewBox="0 0 516.96 517.45"><defs><style>.cls-1{fill:#0d0909;}</style></defs><title>electro_icon</title><path class="cls-1" d="M211.79,221.27a38,38,0,1,1-38,38,38,38,0,0,1,38-38M259.23.72C124.37.72,13.78,104.09,1.83,235.82a32.41,32.41,0,0,0-.55,4.78c-.06.6-.16,1.16-.21,1.79v0c0,.21-.06.45-.06.61a34.59,34.59,0,0,0,34.55,34.64v-1l.1.1v.89h83.19c8.28,44.42,46.29,78,92,78h71.94v10a21,21,0,0,0,42,0V316.62h62a14.67,14.67,0,0,0,0-29.34h-62V231.75h62a14.66,14.66,0,0,0,0-29.32h-62V153.26a21,21,0,0,0-42,0v10H210.89c-45.81,0-83.9,33.7-92,78.3H36.68C45.88,126.49,141.89,36,259.23,36c123.41,0,223.48,100.08,223.48,223.43S382.64,482.92,259.23,482.92c-100.61,0-185.48-66.56-213.43-158.08,0,0-.24,0-.31-.08A17.64,17.64,0,0,0,29.23,313.7a17.91,17.91,0,0,0-17.87,17.92,15.31,15.31,0,0,0,.66,4.57,11,11,0,0,0,1.1,2.49C46.59,442.86,144,518.17,259.23,518.17,402.15,518.17,518,402.33,518,259.46S402.15.72,259.23.72" transform="translate(-1.01 -0.72)"/></svg>