<svg id="Layer_1" data-name="Layer 1" xmlns="http://www.w3.org/2000/svg" viewBox="0 0 518.17 518.21"><defs><style>.cls-1{fill:#ffffff;}</style></defs><title>wood_icon</title><path class="cls-1" d="M259.5.39C116.41.39.42,116.39.42,259.51s116,259.1,259.08,259.1,259.08-116,259.08-259.1S402.59.39,259.5.39m0,496.18C128.57,496.57,22.41,390.4,22.41,259.5S128.57,22.43,259.5,22.43,496.57,128.57,496.57,259.5,390.43,496.57,259.5,496.57" transform="translate(-0.42 -0.39)"/><path class="cls-1" d="M271,304.87s-52.48-3.13-70.44-61c-22.74-73.18,48.19-92.33,44.36-142-3.33-43.28-13.3-45-13.3-45s85.56,7.4,91,107.62c2.21,41.06-24.41,58.78-29.4,73.76-9.45,28.36-4.71,47.06-4.71,47.06s-27-12.06-19.7-55.37c7.78-46-2.77-64.9-2.77-64.9s-32,24-27.17,69.34S271,304.87,271,304.87" transform="translate(-0.42 -0.39)"/><path class="cls-1" d="M221.44,401.58l-14.94,20.3a3.91,3.91,0,0,1-6.29-4.63l12.44-16.91-35.46,2.5-17.06,23c-7.24,9.84-.51,17.41,9.34,24.65h0c9.85,7.24,19.08,11.42,26.32,1.58l39.56-53.32-13.19.93A3.93,3.93,0,0,1,221.44,401.58Z" transform="translate(-0.42 -0.39)"/><path class="cls-1" d="M263.25,415.23a3.83,3.83,0,0,1-1.76.42,3.9,3.9,0,0,1-1.77-7.38l22.71-11.51-3.51-4c-2,2-4.77,3.24-8.72,3.53l-9.75.69-10,5c-10.9,5.53-8.3,15.32-2.77,26.22h0c5.52,10.91,11.88,18.8,22.78,13.27L306,423.66l-18.24-20.84Z" transform="translate(-0.42 -0.39)"/><path class="cls-1" d="M389.91,356.74c-5.53-10.9-11.88-18.79-22.79-13.27L326,364.1l-33.57-38.34c-7.13-8.08-14.82-5.17-22.82,1.17a66.62,66.62,0,0,0-5.37-4.34h0c-9.85-7.25-19.08-11.43-26.32-1.58l-18.11,24.4L136,351.32c-12.19.91-13.55,10.95-12.64,23.14s3.75,21.92,15.94,21l130.19-9.18a18.05,18.05,0,0,0,3.34-.55l-8.07-9.21a3.89,3.89,0,0,1-1.41.39l-51.86,3.87-.29,0a3.91,3.91,0,0,1-.29-7.8l47.65-3.56-6.8-7.76c-2.51-2.85-3.65-5.59-3.77-8.27,0-.24,0-.48,0-.72s0-.27,0-.41,0-.47.08-.7,0-.29.05-.43.09-.45.14-.67.07-.3.11-.45.13-.44.2-.66l.15-.46c.08-.21.17-.42.26-.63s.13-.32.2-.48.2-.41.3-.62.16-.32.25-.48l.35-.61c.09-.16.19-.33.3-.49s.25-.39.38-.59l.35-.51.41-.57.41-.53a54.7,54.7,0,0,1,6.93-7.11h0c1.29-1.13,2.56-2.19,3.83-3.17-6.91,7-10.36,14.07-3.42,21.92l86,98.2c8.09,9.17,16.91,4.18,26.08-3.91h0c9.16-8.09,15.2-16.22,7.11-25.39l-22.28-25.44,31-15.55C398,377.44,395.43,367.65,389.91,356.74Zm-189.49,7.42-55.62,4.15-.29,0a3.91,3.91,0,0,1-.28-7.8l55.61-4.15a3.9,3.9,0,0,1,.58,7.78ZM237.6,337a3.91,3.91,0,1,1,6.29,4.63l-1.58,2.15-10.23.72Zm68.15,50.81a3.94,3.94,0,0,1-2.59,1,3.89,3.89,0,0,1-2.93-1.32l-16.68-18.89a3.9,3.9,0,1,1,5.85-5.17l16.69,18.89A3.93,3.93,0,0,1,305.75,387.85Zm48.73,55.2a3.94,3.94,0,0,1-2.59,1A3.89,3.89,0,0,1,349,442.7l-34.41-39a3.91,3.91,0,0,1,5.86-5.17l34.41,39A3.93,3.93,0,0,1,354.48,443.05ZM376,377.64,349.56,391,344.25,385l28.19-14.28a3.91,3.91,0,0,1,3.53,7Z" transform="translate(-0.42 -0.39)"/></svg>